<?xml version="1.0" encoding="UTF-8"?>
<svg xmlns="http://www.w3.org/2000/svg" version="1.1" viewBox="0 0 798.64 287.33">
  <defs>
    <style>
      .cls-1 {
        fill: #fff;
      }
    </style>
  </defs>
  <!-- Generator: Adobe Illustrator 28.7.1, SVG Export Plug-In . SVG Version: 1.2.0 Build 142)  -->
  <g>
    <g id="Ebene_1">
      <g>
        <path class="cls-1" d="M704.09,189.01h40.56v-58.54c0-7.11,4.46-10.66,13.38-10.66h2.72v-38.89c-.84-.14-2.16-.42-3.97-.84h-6.48c-13.11,0-24.09,4.15-32.94,12.44-8.85,8.29-13.28,18.57-13.28,30.84v65.65ZM696.57,111.23c-2.83-6.07-6.02-11.57-10.8-16.3-4.79-4.75-10.31-8.86-16.55-11.51-19.05-8.09-43.47-3.59-58.9,9.9-1.01.88-1.99,1.8-2.94,2.75-10.95,10.95-16.42,24.15-16.42,39.62s5.36,28.58,16.1,39.31c10.73,10.73,23.69,16.1,38.89,16.1,9.7,0,19.06-2.49,27.38-7.52,9.37-5.66,16.3-13.46,21.76-22.8l-31.99-16.93c-5.86,5.85-11.71,8.78-17.56,8.78-4.74,0-8.86-1.74-12.34-5.23-3.34-3.76-5.02-8.08-5.02-12.96,0-5.44,1.85-10.11,5.55-14.01,2.91-3.07,6.87-5.12,11.07-5.66,4.44-.57,7.86.94,11.85,2.55l-25.44,18.51,10.78,12.4s54.58-37.02,54.58-37.02ZM527.82,189.01h40.57v-63.35h16.93v-37.64h-16.93v-4.71c0-4.71,1.22-8.06,3.66-10.06,2.44-2,6.65-3,12.64-3,3.94,0,7.16.69,10.88,1.88,0,0,0-34.48,0-34.48-5.93-1.65-11.68-1.69-17.77-1.69-8.93,0-19.42.82-27.25,5.62-7.86,4.81-14.11,14.44-17.79,22.64-3.07,6.86-4.94,14.39-4.94,21.92v102.87ZM455.27,124.41c2.93-2.93,6.41-4.39,10.45-4.39,4.6,0,8.19,1.5,10.77,4.5,2.58,3,3.87,6.8,3.87,11.39,0,5.02-1.43,9.06-4.28,12.13-2.86,3.07-6.38,4.6-10.56,4.6s-7.81-1.53-10.45-4.6c-2.51-3.34-3.77-7.53-3.77-12.55,0-4.46,1.32-8.16,3.97-11.08M426.63,95.76c-10.59,11.02-15.89,24.47-15.89,40.36s5.19,29.31,15.57,39.83c10.38,10.53,23.53,15.79,39.42,15.79s28.78-5.23,39.1-15.68c10.31-10.45,15.47-23.56,15.47-39.31s-5.23-29.79-15.68-40.88c-10.46-11.08-23.49-16.63-39.1-16.63s-28.3,5.51-38.89,16.52M301.8,189.01h40.56v-57.71c0-7.67,3.59-11.5,10.77-11.5,6.34,0,9.51,3.83,9.51,11.5v57.71h40.56v-72.97c0-23.69-12.82-35.54-38.47-35.54l-7.11.42c-2.79.28-4.6.52-5.44.73-.84.21-1.75.52-2.72.94-2.23.56-4.6,1.81-7.11,3.76v-48.09h-40.56v150.75ZM252.03,189.01h40.56V38.25h-40.56v150.76ZM188.24,189.01c2.24-.27,4.76-.62,7.55-1.05v-38.47l-5.69.63c-5.35,0-9.54-1.43-12.56-4.29-3.02-2.85-4.54-6.8-4.54-11.81,0-4.46,1.44-8.22,4.32-11.29,2.88-3.06,6.35-4.6,10.42-4.6s7.55,1.6,10.42,4.81c2.88,3.21,4.32,7.04,4.32,11.5v43.7c0,6.69-2,11.43-5.99,14.22-3.99,2.79-10.61,4.18-19.85,4.18l-8.83-.63-9.66-2.09v39.31c5.71,1.53,9.69,2.41,11.92,2.61,2.23.21,4.19.31,5.86.31h4.81c18.26,0,33.21-5.13,44.85-15.37,11.64-10.24,17.46-23.31,17.46-39.2v-45.17c0-17-4.98-30.77-14.95-41.29-9.97-10.52-22.9-15.79-38.79-15.79-17.01,0-30.74,5.61-41.19,16.83-10.45,11.23-15.68,25.55-15.68,42.97,0,15.62,4.4,27.92,13.21,36.9,8.82,8.99,20.84,13.49,36.09,13.49,2.1,0,4.26-.14,6.5-.42M124.91,35.33c-9.18,0-18.46,0-27.49,1.9s-16.94,6.42-24.36,11.94c-5.02,3.73-9.61,8.04-13.64,12.82-4.38,5.2-7.46,10.8-10.31,16.94-5.09,10.94-7.63,22.41-7.63,34.39s2.61,23.08,7.85,34.08c5.23,11.01,11.32,19.45,18.3,25.3,8.04,6.75,17.12,12.39,27.09,15.78s19.73,3.24,30.2,3.24c0-13.67-.68-27.58.04-41.18-5.92-.56-12.31-2.39-17.65-4.99-6-2.92-9.82-7.44-12.92-13.21h30.53v-39.73s-30.53,0-30.53,0c7.2-10.6,18.13-15.79,30.53-17.56,0,0,0-39.73,0-39.73Z"/>
        <path class="cls-1" d="M713.21,198.07h-12.64v37.82h12.64v-16.4l16.45,16.4h16.38l-21.09-19.91,19.28-17.91h-15.61l-15.41,15.6v-15.6ZM677.74,235.89h12.64v-37.82h-12.64v37.82ZM631.63,235.89v-23.12l23.34,23.12h12.58v-37.82h-12.58v23.12l-23.34-23.12h-12.64v37.82h12.64ZM577.91,198.07h-12.64v37.82h12.64v-15.6h18.25v15.6h12.64v-37.82h-12.64v14.6h-18.25v-14.6ZM555.21,198.98c-2.06-.67-4.03-1.16-5.9-1.48-1.87-.31-3.78-.48-5.71-.48-3.4,0-6.64.5-9.74,1.48-3.1.98-5.82,2.36-8.16,4.11-2.34,1.76-4.22,3.85-5.61,6.27-1.4,2.43-2.1,5.09-2.1,8s.71,5.6,2.13,8.05c1.42,2.46,3.3,4.58,5.64,6.37,2.34,1.79,5.05,3.18,8.13,4.16,3.07.99,6.29,1.48,9.64,1.48,1.63,0,3.29-.13,4.97-.38,1.67-.25,3.48-.64,5.41-1.18l1.29-.36v-11.64c-3.22,2.68-6.86,4.01-10.9,4.01-1.85,0-3.57-.27-5.16-.8-1.59-.53-2.98-1.27-4.16-2.21-1.19-.93-2.11-2.04-2.78-3.31-.66-1.27-1-2.66-1-4.17s.33-2.84,1-4.11c.66-1.27,1.58-2.36,2.74-3.29,1.16-.92,2.55-1.64,4.16-2.18,1.61-.54,3.36-.81,5.26-.81,4.3,0,7.91,1.39,10.83,4.17v-11.74ZM511.1,198.07h-27.66v37.82h27.66v-8.32h-15.03v-6.52h14.19v-8.33h-14.19v-6.32h15.03v-8.33ZM477.82,206.4v-8.33h-33.4v8.33h10.38v29.49h12.64v-29.49h10.38ZM398.89,235.89h18.7c3.35,0,6.48-.52,9.38-1.55s5.44-2.43,7.61-4.16c2.17-1.74,3.87-3.76,5.1-6.04,1.23-2.29,1.84-4.67,1.84-7.15s-.62-4.91-1.87-7.2c-1.25-2.29-2.96-4.3-5.13-6.02-2.17-1.72-4.71-3.1-7.61-4.14-2.9-1.04-6.01-1.55-9.32-1.55h-18.7v37.82ZM411.52,206.4h2.9c2.15,0,4.09.27,5.81.8,1.72.53,3.17,1.27,4.35,2.21,1.18.93,2.1,2.06,2.74,3.36.64,1.3.96,2.71.96,4.21s-.31,2.95-.93,4.24c-.62,1.29-1.53,2.4-2.71,3.34-1.18.93-2.63,1.67-4.35,2.21-1.72.53-3.68.8-5.87.8h-2.9v-21.17ZM352.78,235.89v-23.12l23.34,23.12h12.58v-37.82h-12.58v23.12l-23.34-23.12h-12.64v37.82h12.64ZM321.11,235.89h13.48l-18.51-37.82h-13.8l-18.51,37.82h13.48l2.9-6.57h18.06l2.9,6.57ZM303.5,221.85l5.67-12.59,5.68,12.59h-11.35ZM252.11,198.07v37.82h27.8v-8.32h-15.15v-29.5h-12.64Z"/>
      </g>
    </g>
  </g>
</svg>